Coordinates
version=1
nRows=15
nColumns=46
inDegrees=yes

Units are S.I. units (second, meters, Newtons, ...)
Angles are in degrees.

endheader
time	pelvis_tilt	pelvis_list	pelvis_rotation	pelvis_tx	pelvis_ty	pelvis_tz	bb_angle	bb_tx	bb_ty	bb_tz	hip_flexion_r	hip_adduction_r	hip_rotation_r	knee_angle_r	knee_angle_r_beta	ankle_angle_r	subtalar_angle_r	mtp_angle_r	crank_angle_r	hip_flexion_l	hip_adduction_l	hip_rotation_l	knee_angle_l	knee_angle_l_beta	ankle_angle_l	subtalar_angle_l	mtp_angle_l	crank_angle_l	lumbar_extension	lumbar_bending	lumbar_rotation	arm_flex_r	arm_add_r	arm_rot_r	elbow_flex_r	pro_sup_r	wrist_flex_r	wrist_dev_r	arm_flex_l	arm_add_l	arm_rot_l	elbow_flex_l	pro_sup_l	wrist_flex_l	wrist_dev_l
      0.00000000	    -26.09862613	      0.71818244	      2.08889802	      0.16921787	      1.11092936	     -0.22997557	      0.00000000	      0.50000000	      0.00000000	      0.25000000	     57.22660697	     -4.27502264	      4.11869299	     70.92361892	      1.23785067	     15.79443727	     -8.34916132	      0.00000000	      0.00000000	     81.96649805	     -0.59723813	      5.26922183	     68.87182684	      1.20204014	     11.08058505	     -7.49238271	      0.00000000	      0.00000000	    -42.72877578	     -0.70762374	     -3.92033917	     89.57049454	     -0.07420795	     56.67613147	     17.56786915	     23.90490836	      0.00000000	      0.00000000	     89.73726488	     -5.75270915	     52.51284343	     21.42870667	     23.02864000	      0.00000000	      0.00000000
      0.00500000	    -26.10368424	      0.67872392	      1.97737038	      0.16920618	      1.11089726	     -0.22982431	      0.00000000	      0.50000000	      0.00000000	      0.25000000	     57.54568667	     -4.15652291	      4.15879336	     71.62619286	      1.25011290	     16.08502586	     -8.26114074	      0.00000000	      0.00000000	     81.59348489	     -0.71913966	      5.29663694	     68.19162247	      1.19016833	     10.81157185	     -7.46937784	      0.00000000	      0.00000000	    -42.73652880	     -0.67648907	     -3.90722532	     89.55958101	      0.45156312	     54.30760780	     16.93237976	     27.22144184	      0.00000000	      0.00000000	     89.73674312	     -6.12825385	     52.77594730	     21.11718958	     26.12467621	      0.00000000	      0.00000000
      0.01000000	    -26.12864626	      0.62769508	      1.95408397	      0.16925370	      1.11092436	     -0.22980594	      0.00000000	      0.50000000	      0.00000000	      0.25000000	     57.88721537	     -4.13886289	      4.10775018	     72.33286446	      1.26244664	     16.32797878	     -8.15688530	      0.00000000	      0.00000000	     81.23680598	     -0.75336948	      5.30114735	     67.49865253	      1.17807373	     10.35767967	     -7.66014285	      0.00000000	      0.00000000	    -42.69803432	     -0.66920789	     -3.77184706	     89.57358997	     -0.05968497	     56.23252034	     16.93406459	     28.12123584	      0.00000000	      0.00000000	     89.73817119	     -5.84186881	     52.56683387	     20.93738757	     25.92872360	      0.00000000	      0.00000000
      0.01500000	    -26.10380463	      0.68863333	      2.06485878	      0.16900829	      1.11125804	     -0.23042338	      0.00000000	      0.50000000	      0.00000000	      0.25000000	     58.15381342	     -4.33768529	      4.08949126	     72.98114187	      1.27376122	     16.57740060	     -7.93749766	      0.00000000	      0.00000000	     80.78851544	     -0.65428628	      5.14028276	     66.71680731	      1.16442795	      9.84844139	     -8.38995908	      0.00000000	      0.00000000	    -42.80626721	     -0.72049372	     -3.74888053	     89.56277751	     -0.29516178	     54.88058250	     17.23713956	     28.65992459	      0.00000000	      0.00000000	     89.72925970	     -5.68391689	     51.32485505	     21.41817435	     26.57204012	      0.00000000	      0.00000000
      0.02000000	    -26.48187867	      0.51558650	      2.02763112	      0.16814060	      1.11117722	     -0.23074807	      0.00000000	      0.50000000	      0.00000000	      0.25000000	     58.85189881	     -4.11709015	      4.15184483	     73.57598164	      1.28414313	     16.69425344	     -8.14319494	      0.00000000	      0.00000000	     80.91410228	     -1.07456247	      4.89793926	     66.09834599	      1.15363377	      9.60856946	     -7.72150201	      0.00000000	      0.00000000	    -42.38710383	     -0.66836124	     -3.65463229	     89.56320630	     -0.12016706	     54.89821980	     16.83899186	     28.46144662	      0.00000000	      0.00000000	     89.72481374	     -5.80740990	     51.48581748	     21.59176724	     26.41908807	      0.00000000	      0.00000000
      0.02500000	    -26.34412502	      0.37974303	      1.67489396	      0.16929657	      1.11069085	     -0.22925837	      0.00000000	      0.50000000	      0.00000000	      0.25000000	     59.10899033	     -3.77325626	      4.01642261	     74.45859796	      1.29954769	     16.81394134	     -8.14045278	      0.00000000	      0.00000000	     80.28000342	     -1.11976151	      5.42104080	     65.41310038	      1.14167398	      9.40104341	     -7.65113390	      0.00000000	      0.00000000	    -42.49904989	     -0.72733372	     -3.43062017	     89.54752125	      0.02313475	     54.93885596	     16.92261475	     28.47211551	      0.00000000	      0.00000000	     89.73017725	     -5.86763012	     51.47254880	     21.51487417	     26.39156591	      0.00000000	      0.00000000
      0.03000000	    -26.08187532	      0.42390855	      1.77546063	      0.16946754	      1.11122420	     -0.22953882	      0.00000000	      0.50000000	      0.00000000	      0.25000000	     59.12506743	     -3.94683715	      3.99778215	     75.17406794	      1.31203500	     17.29646902	     -7.66092245	      0.00000000	      0.00000000	     79.53619866	     -0.98000196	      5.37495255	     64.61339770	      1.12771653	      8.86774942	     -7.65592688	      0.00000000	      0.00000000	    -42.75047494	     -0.58189726	     -3.51459878	     89.58440453	     -0.08433456	     56.80021634	     17.24165104	     25.99631515	      0.00000000	      0.00000000	     89.73256719	     -5.64558060	     52.06085089	     21.26946378	     22.63078205	      0.00000000	      0.00000000
      0.03500000	    -26.06717052	      0.36471527	      1.68985601	      0.16952622	      1.11125125	     -0.22942456	      0.00000000	      0.50000000	      0.00000000	      0.25000000	     59.44509987	     -3.83839915	      4.01976365	     75.85844325	      1.32397960	     17.50313475	     -7.61885405	      0.00000000	      0.00000000	     79.08816545	     -1.07638813	      5.41604282	     63.90427006	      1.11533992	      8.62134998	     -7.78178285	      0.00000000	      0.00000000	    -42.75558395	     -0.54284029	     -3.42703347	     89.57513699	      0.14613842	     55.73903256	     17.22119695	     26.03124286	      0.00000000	      0.00000000	     89.73468509	     -5.87835556	     52.69113799	     21.15503489	     23.93476698	      0.00000000	      0.00000000
      0.04000000	    -26.04877071	      0.29538684	      1.65553556	      0.16960282	      1.11132976	     -0.22938550	      0.00000000	      0.50000000	      0.00000000	      0.25000000	     59.76994335	     -3.81242514	      3.98247696	     76.56010510	      1.33622591	     17.68949332	     -7.41546447	      0.00000000	      0.00000000	     78.63535293	     -1.14783633	      5.47331182	     63.18858776	      1.10284891	      8.37691381	     -7.78387220	      0.00000000	      0.00000000	    -42.77374186	     -0.51260715	     -3.33144413	     89.58450556	     -0.13323442	     56.85302619	     17.31046532	     26.10101540	      0.00000000	      0.00000000	     89.73089772	     -5.68129960	     52.08653920	     21.26981461	     22.86005566	      0.00000000	      0.00000000
      0.04500000	    -26.02260204	      0.29103414	      1.58448300	      0.16969140	      1.11139851	     -0.22934218	      0.00000000	      0.50000000	      0.00000000	      0.25000000	     60.10246608	     -3.77255515	      4.02852366	     77.26643784	      1.34855374	     17.85879232	     -7.28920359	      0.00000000	      0.00000000	     78.14173130	     -1.21073214	      5.44614549	     62.43747578	      1.08973953	      8.03582742	     -7.95034025	      0.00000000	      0.00000000	    -42.81581129	     -0.50573128	     -3.27940412	     89.57047227	      0.13789212	     55.20011576	     17.18892432	     27.17389485	      0.00000000	      0.00000000	     89.73420415	     -5.93935608	     52.85732861	     21.00980045	     25.06604657	      0.00000000	      0.00000000
      0.05000000	    -26.04454635	      0.11011077	      1.51770689	      0.16975194	      1.11140673	     -0.22919928	      0.00000000	      0.50000000	      0.00000000	      0.25000000	     60.43952630	     -3.58308303	      3.94326212	     77.91804456	      1.35992642	     17.95805716	     -7.35184656	      0.00000000	      0.00000000	     77.73483177	     -1.35654643	      5.57873392	     61.71909853	      1.07720148	      7.84876150	     -7.87912512	      0.00000000	      0.00000000	    -42.81592452	     -0.38690309	     -3.08000510	     89.56479647	      0.40776238	     53.56687092	     16.88576799	     28.28540693	      0.00000000	      0.00000000	     89.72853232	     -5.47915012	     50.89870812	     20.56184518	     26.09655751	      0.00000000	      0.00000000
      0.05500000	    -26.00224264	      0.05194723	      1.45672343	      0.16983250	      1.11145388	     -0.22913505	      0.00000000	      0.50000000	      0.00000000	      0.25000000	     60.74163638	     -3.49791778	      3.95562392	     78.60571148	      1.37192848	     18.17068305	     -7.24418417	      0.00000000	      0.00000000	     77.23527854	     -1.44358402	      5.58458142	     60.98085375	      1.06431668	      7.52910300	     -8.00352703	      0.00000000	      0.00000000	    -42.82821859	     -0.33758499	     -3.04196713	     89.57520707	      0.13398958	     55.42822901	     17.25622912	     27.04085622	      0.00000000	      0.00000000	     89.73372289	     -5.99687283	     53.03757585	     20.92011421	     25.02451943	      0.00000000	      0.00000000
      0.06000000	    -26.00721572	     -0.01351395	      1.42142311	      0.16991484	      1.11142098	     -0.22913040	      0.00000000	      0.50000000	      0.00000000	      0.25000000	     61.13891415	     -3.46432521	      3.92414917	     79.33531074	      1.38466239	     18.19371632	     -7.15051505	      0.00000000	      0.00000000	     76.77788235	     -1.50876846	      5.59312407	     60.23709602	      1.05133566	      7.30629962	     -7.98284814	      0.00000000	      0.00000000	    -42.80963918	     -0.27985064	     -2.93274058	     89.57246553	      0.13127745	     54.49447144	     16.65993992	     31.06217581	      0.00000000	      0.00000000	     89.73711281	     -5.96608221	     52.98183844	     20.23399780	     28.44359255	      0.00000000	      0.00000000
      0.06500000	    -25.98162803	     -0.11716853	      1.36837268	      0.17004430	      1.11151367	     -0.22902964	      0.00000000	      0.50000000	      0.00000000	      0.25000000	     61.44273544	     -3.35116377	      3.89574459	     79.99555509	      1.39618582	     18.42179069	     -7.08196934	      0.00000000	      0.00000000	     76.26774014	     -1.59353642	      5.64621064	     59.45195816	      1.03763242	      6.91367947	     -8.19783400	      0.00000000	      0.00000000	    -42.82542627	     -0.22383006	     -2.81688050	     89.58017830	     -0.10276326	     55.69068387	     16.74627577	     30.97644294	      0.00000000	      0.00000000	     89.73470321	     -5.85753072	     52.80255436	     20.23614746	     27.72448736	      0.00000000	      0.00000000
      0.07000000	    -25.74015738	     -0.15322777	      1.45733541	      0.17020370	      1.11210056	     -0.22928045	      0.00000000	      0.50000000	      0.00000000	      0.25000000	     61.50643517	     -3.47556507	      3.79727061	     80.65580532	      1.40770936	     18.69292551	     -6.78062211	      0.00000000	      0.00000000	     75.47028405	     -1.49231653	      5.71399175	     58.56129995	      1.02208750	      6.52653738	     -8.47892996	      0.00000000	      0.00000000	    -43.21331649	     -0.09387238	     -2.85999798	     89.56228047	      0.26859283	     52.34682835	     17.03052075	     31.75179386	      0.00000000	      0.00000000	     89.72544021	     -5.49268838	     49.62852876	     20.46364386	     28.80835003	      0.00000000	      0.00000000
